<?xml version="1.0" encoding="iso-8859-1"?>
<!-- Uploaded to: SVG Repo, www.svgrepo.com, Generator: SVG Repo Mixer Tools -->
<!DOCTYPE svg PUBLIC "-//W3C//DTD SVG 1.1//EN" "http://www.w3.org/Graphics/SVG/1.1/DTD/svg11.dtd">
<svg fill="#000000" height="800px" width="800px" version="1.1" id="Capa_1" xmlns="http://www.w3.org/2000/svg" xmlns:xlink="http://www.w3.org/1999/xlink" 
	 viewBox="0 0 353.332 353.332" xml:space="preserve">
<g>
	<path d="M85.831,210h60c8.284,0,15-6.717,15-15c0-8.284-6.716-15-15-15h-60c-8.284,0-15,6.716-15,15
		C70.831,203.283,77.547,210,85.831,210z"/>
	<path d="M348.107,327.725l-30.938-30.938c7.573-11.537,11.995-25.319,11.995-40.121c0-35.297-25.068-64.844-58.334-71.786V125
		c0-3.979-1.58-7.794-4.393-10.607l-110-110C153.625,1.58,149.809,0,145.831,0h-130c-8.284,0-15,6.715-15,15v300
		c0,8.283,6.716,15,15,15h240c14.805,0,28.588-4.424,40.127-11.998l30.937,30.936c2.929,2.93,6.768,4.395,10.606,4.395
		c3.839,0,7.678-1.465,10.606-4.395C353.966,343.08,353.966,333.583,348.107,327.725z M299.165,256.666
		c0,23.895-19.439,43.334-43.334,43.334c-23.895,0-43.334-19.44-43.334-43.334s19.439-43.334,43.334-43.334
		C279.725,213.332,299.165,232.771,299.165,256.666z M160.831,51.213L219.618,110h-58.787V51.213z M30.831,30h100v95
		c0,8.284,6.716,15,15,15h95v44.88c-27.862,5.814-49.953,27.493-56.4,55.12h-98.6c-8.284,0-15,6.715-15,15c0,8.283,6.716,15,15,15
		h97.903c2.042,11.064,6.564,21.266,12.983,30H30.831V30z"/>
</g>
</svg>