<svg width="512" height="512" viewBox="0 0 512 512" style="color:currentColor" xmlns="http://www.w3.org/2000/svg" class="h-full w-full"><rect width="512" height="512" x="0" y="0" rx="30" fill="transparent" stroke="transparent" stroke-width="0" stroke-opacity="100%" paint-order="stroke"></rect><svg width="256px" height="256px" viewBox="0 0 28 28" fill="currentColor" x="128" y="128" role="img" style="display:inline-block;vertical-align:middle" xmlns="http://www.w3.org/2000/svg"><g fill="currentColor"><path fill="currentColor" d="M6.25 4.5A1.75 1.75 0 0 0 4.5 6.25v15.5A1.75 1.75 0 0 0 6 23.482V16.25A2.25 2.25 0 0 1 8.25 14h11.5A2.25 2.25 0 0 1 22 16.25v7.232a1.75 1.75 0 0 0 1.5-1.732V8.786c0-.465-.184-.91-.513-1.238l-2.535-2.535a1.75 1.75 0 0 0-1.238-.513H19v4.25A2.25 2.25 0 0 1 16.75 11h-6.5A2.25 2.25 0 0 1 8 8.75V4.5H6.25Zm3.25 0v4.25c0 .414.336.75.75.75h6.5a.75.75 0 0 0 .75-.75V4.5h-8Zm11 19v-7.25a.75.75 0 0 0-.75-.75H8.25a.75.75 0 0 0-.75.75v7.25h13ZM3 6.25A3.25 3.25 0 0 1 6.25 3h12.965a3.25 3.25 0 0 1 2.298.952l2.535 2.535c.61.61.952 1.437.952 2.299V21.75A3.25 3.25 0 0 1 21.75 25H6.25A3.25 3.25 0 0 1 3 21.75V6.25Z"/></g></svg></svg>